<svg xmlns="http://www.w3.org/2000/svg" viewBox="0 0 564.81 164.02"><defs><style>.cls-1{font-size:95.66px;letter-spacing:0.15em;}.cls-1,.cls-4{font-family:Montserrat-Black, Montserrat;font-weight:800;}.cls-2{font-family:Montserrat-BlackItalic, Montserrat;font-style:italic;letter-spacing:0.15em;}.cls-3{fill:none;stroke:#000;stroke-linecap:round;stroke-miterlimit:10;stroke-width:5px;}.cls-4{font-size:42.11px;fill:#fff;letter-spacing:0.15em;}</style></defs><g id="Layer_2" data-name="Layer 2"><g id="Layer_1-2" data-name="Layer 1"><text class="cls-1" transform="translate(0 128.02)">SH<tspan class="cls-2" x="168.45" y="0">A</tspan><tspan x="259.9" y="0">KE</tspan></text></g><g id="Layer_4" data-name="Layer 4"><path d="M456.15,155.23c16.23,2.93,33.47,5.86,49.71,8.79,5.95-11.59,27.72-59,37.11-94.64L456.28,52.15C451.78,77.13,454.28,136.67,456.15,155.23Z"/><path d="M457.52,45.05,474,36.53,529.91,47l13.53,15.23Z"/><path d="M524,38.46,483.2,31c3.26-9.78,8.05-24.21,10.78-29.32,18.18-4.44,24.68.91,32.18,6.82Z"/><path class="cls-3" d="M436.12,76.35q-3.64-39.87,23.68-58.5"/><path class="cls-3" d="M560.3,52.15q8.16,39.2-16.86,60.82"/><text class="cls-4" transform="translate(469.23 112.06)">IT</text></g></g></svg>